# xmcd CD database file
#
# Track frame offsets:
#	150
#	14100
#	28664
#	45918
#	58685
#	69233
#	84405
#	95768
#	116406
#	128381
#	147206
#	161184
#	178350
#	191621
#	209428
#	225916
#	239473
#	254188
#	269029
#	284366
#
# Disc length: 4034 seconds
#
# Revision: 0
# Processed by: cddbd v1.5.2PL0 Copyright (c) Steve Scherf et al.
# Submitted via: CDex 1.51
#
DISCID=2a0fc014
DTITLE=VariousArtists - 2007 X'mas Party
DYEAR=2007
DGENRE=Country
TTITLE0=A'int That Love
TTITLE1=Get Into Reggae Cowboy
TTITLE2=Country Girl
TTITLE3=Tequila
TTITLE4=Charlestone Freeze
TTITLE5=Redneck Girl
TTITLE6=Rollin' in My Sweet Baby's Arms
TTITLE7=Copperhead Road
TTITLE8=Too Country And Proud Of It
TTITLE9=She Thinks My Tractor's Sexy
TTITLE10=Sing A Long Song
TTITLE11=Bomshell Stomp
TTITLE12=Cowboy
TTITLE13=Watching You
TTITLE14=If You're Going Through Hell
TTITLE15=About The South
TTITLE16=Every Little Thing
TTITLE17=How Long
TTITLE18=Hole In My Head
TTITLE19=Sell A Lot Of Beer
EXTD=YEAR: 2007
EXTT0=
EXTT1=
EXTT2=
EXTT3=
EXTT4=
EXTT5=
EXTT6=
EXTT7=
EXTT8=
EXTT9=
EXTT10=
EXTT11=
EXTT12=
EXTT13=
EXTT14=
EXTT15=
EXTT16=
EXTT17=
EXTT18=
EXTT19=
PLAYORDER=
